<?xml version="1.0" encoding="utf-8" standalone="no"?>
<!DOCTYPE svg PUBLIC "-//W3C//DTD SVG 1.1//EN"
  "http://www.w3.org/Graphics/SVG/1.1/DTD/svg11.dtd">
<svg xmlns:xlink="http://www.w3.org/1999/xlink" width="370.743314pt" height="347.04pt" viewBox="0 0 370.743314 347.04" xmlns="http://www.w3.org/2000/svg" version="1.1">
 <metadata>
  <rdf:RDF xmlns:dc="http://purl.org/dc/elements/1.1/" xmlns:cc="http://creativecommons.org/ns#" xmlns:rdf="http://www.w3.org/1999/02/22-rdf-syntax-ns#">
   <cc:Work>
    <dc:type rdf:resource="http://purl.org/dc/dcmitype/StillImage"/>
    <dc:date>2025-10-18T02:40:49.538918</dc:date>
    <dc:format>image/svg+xml</dc:format>
    <dc:creator>
     <cc:Agent>
      <dc:title>Matplotlib v3.10.0, https://matplotlib.org/</dc:title>
     </cc:Agent>
    </dc:creator>
   </cc:Work>
  </rdf:RDF>
 </metadata>
 <defs>
  <style type="text/css">*{stroke-linejoin: round; stroke-linecap: butt}</style>
 </defs>
 <g id="figure_1">
  <g id="patch_1">
   <path d="M 0 347.04 
L 370.743314 347.04 
L 370.743314 -0 
L 0 -0 
z
" style="fill: #ffffff"/>
  </g>
  <g id="axes_1">
   <g id="patch_2">
    <path d="M 156.874124 57.104156 
C 135.848742 49.432023 112.738185 49.638754 91.853416 57.685788 
C 70.968647 65.732822 53.694354 81.086628 43.252823 100.883162 
C 32.811292 120.679696 29.894811 143.60642 35.047409 165.386665 
C 40.200008 187.16691 53.080062 206.356614 71.284971 219.376199 
C 72.076941 204.586798 76.496384 190.217057 84.152197 177.538645 
C 91.80801 164.860233 102.46749 154.258516 115.187314 146.671706 
C 114.788129 129.543852 118.341474 112.552177 125.570697 97.019595 
C 132.79992 81.487013 143.512408 67.827369 156.874124 57.104156 
" clip-path="url(#p4f78aea0dd)" style="fill: #5c9bcf; opacity: 0.5"/>
   </g>
   <g id="patch_3">
    <path d="M 156.874124 57.104156 
C 176.183948 64.150285 192.607869 77.430701 203.539639 94.837989 
C 214.471409 112.245276 219.300494 132.807245 217.260585 153.260998 
C 232.010515 164.868612 242.779506 180.79231 248.060492 198.803649 
C 253.341478 216.814987 252.876054 236.032654 246.729354 253.767231 
C 263.423803 250.714345 279.203096 243.890236 292.861211 233.816478 
C 306.519326 223.742719 317.699201 210.682666 325.546348 195.63451 
C 333.393495 180.586354 337.702768 163.943496 338.144806 146.977962 
C 338.586845 130.012428 335.150092 113.167748 328.097221 97.73137 
C 321.04435 82.294993 310.559744 68.670471 297.444749 57.899137 
C 284.329754 47.127803 268.927235 39.49125 252.414416 35.573147 
C 235.901596 31.655043 218.710171 31.557819 202.154093 35.288905 
C 185.598015 39.019992 170.110108 46.481847 156.874124 57.104156 
" clip-path="url(#p4f78aea0dd)" style="fill: #9f78b8; opacity: 0.5"/>
   </g>
   <g id="patch_4">
    <path d="M 156.874124 57.104156 
C 143.512408 67.827369 132.79992 81.487013 125.570697 97.019595 
C 118.341474 112.552177 114.788129 129.543852 115.187314 146.671706 
C 130.869105 137.318215 149.025719 132.938979 167.24721 134.115259 
C 185.4687 135.291539 202.911562 141.968882 217.260585 153.260998 
C 219.300494 132.807245 214.471409 112.245276 203.539639 94.837989 
C 192.607869 77.430701 176.183948 64.150285 156.874124 57.104156 
" clip-path="url(#p4f78aea0dd)" style="fill: #b0c0ff; opacity: 0.5"/>
   </g>
   <g id="patch_5">
    <path d="M 71.284971 219.376199 
C 70.121746 241.09851 76.848349 262.525895 90.217769 279.686037 
C 103.587189 296.846179 122.718846 308.608822 144.066015 312.793345 
C 165.413184 316.977869 187.569829 313.308659 206.428439 302.465933 
C 225.287048 291.623207 239.605496 274.321123 246.729354 253.767231 
C 230.998909 256.643831 214.832185 256.103363 199.328983 252.182594 
C 183.82578 248.261826 169.345809 241.051727 156.874124 231.042793 
C 142.734967 236.202152 127.548627 237.836477 112.635463 235.803675 
C 97.722299 233.770873 83.527415 228.131615 71.284971 219.376199 
" clip-path="url(#p4f78aea0dd)" style="fill: #4fb4a4; opacity: 0.5"/>
   </g>
   <g id="patch_6">
    <path d="M 71.284971 219.376199 
C 83.527415 228.131615 97.722299 233.770873 112.635463 235.803675 
C 127.548627 237.836477 142.734967 236.202152 156.874124 231.042793 
C 144.19631 220.868433 133.895217 208.043922 126.694492 193.470175 
C 119.493766 178.896428 115.566067 162.922894 115.187314 146.671706 
C 102.46749 154.258516 91.80801 164.860233 84.152197 177.538645 
C 76.496384 190.217057 72.076941 204.586798 71.284971 219.376199 
" clip-path="url(#p4f78aea0dd)" style="fill: #78eaff; opacity: 0.5"/>
   </g>
   <g id="patch_7">
    <path d="M 217.260585 153.260998 
C 215.532104 170.592132 208.947357 187.088703 198.266464 200.846406 
C 187.585572 214.604109 173.235969 225.072377 156.874124 231.042793 
C 169.345809 241.051727 183.82578 248.261826 199.328983 252.182594 
C 214.832185 256.103363 230.998909 256.643831 246.729354 253.767231 
C 252.876054 236.032654 253.341478 216.814987 248.060492 198.803649 
C 242.779506 180.79231 232.010515 164.868612 217.260585 153.260998 
" clip-path="url(#p4f78aea0dd)" style="fill: #a7d2f4; opacity: 0.5"/>
   </g>
   <g id="patch_8">
    <path d="M 115.187314 146.671706 
C 115.566067 162.922894 119.493766 178.896428 126.694492 193.470175 
C 133.895217 208.043922 144.19631 220.868433 156.874124 231.042793 
C 173.235969 225.072377 187.585572 214.604109 198.266464 200.846406 
C 208.947357 187.088703 215.532104 170.592132 217.260585 153.260998 
C 202.911562 141.968882 185.4687 135.291539 167.24721 134.115259 
C 149.025719 132.938979 130.869105 137.318215 115.187314 146.671706 
" clip-path="url(#p4f78aea0dd)" style="fill: #84b6de; opacity: 0.5"/>
   </g>
   <g id="text_1">
    <!-- 394 -->
    <g transform="translate(58.325245 118.730589) scale(0.11 -0.11)">
     <defs>
      <path id="ArialMT-33" d="M 269 1209 
L 831 1284 
Q 928 806 1161 595 
Q 1394 384 1728 384 
Q 2125 384 2398 659 
Q 2672 934 2672 1341 
Q 2672 1728 2419 1979 
Q 2166 2231 1775 2231 
Q 1616 2231 1378 2169 
L 1441 2663 
Q 1497 2656 1531 2656 
Q 1891 2656 2178 2843 
Q 2466 3031 2466 3422 
Q 2466 3731 2256 3934 
Q 2047 4138 1716 4138 
Q 1388 4138 1169 3931 
Q 950 3725 888 3313 
L 325 3413 
Q 428 3978 793 4289 
Q 1159 4600 1703 4600 
Q 2078 4600 2393 4439 
Q 2709 4278 2876 4000 
Q 3044 3722 3044 3409 
Q 3044 3113 2884 2869 
Q 2725 2625 2413 2481 
Q 2819 2388 3044 2092 
Q 3269 1797 3269 1353 
Q 3269 753 2831 336 
Q 2394 -81 1725 -81 
Q 1122 -81 723 278 
Q 325 638 269 1209 
z
" transform="scale(0.015625)"/>
      <path id="ArialMT-39" d="M 350 1059 
L 891 1109 
Q 959 728 1153 556 
Q 1347 384 1650 384 
Q 1909 384 2104 503 
Q 2300 622 2425 820 
Q 2550 1019 2634 1356 
Q 2719 1694 2719 2044 
Q 2719 2081 2716 2156 
Q 2547 1888 2255 1720 
Q 1963 1553 1622 1553 
Q 1053 1553 659 1965 
Q 266 2378 266 3053 
Q 266 3750 677 4175 
Q 1088 4600 1706 4600 
Q 2153 4600 2523 4359 
Q 2894 4119 3086 3673 
Q 3278 3228 3278 2384 
Q 3278 1506 3087 986 
Q 2897 466 2520 194 
Q 2144 -78 1638 -78 
Q 1100 -78 759 220 
Q 419 519 350 1059 
z
M 2653 3081 
Q 2653 3566 2395 3850 
Q 2138 4134 1775 4134 
Q 1400 4134 1122 3828 
Q 844 3522 844 3034 
Q 844 2597 1108 2323 
Q 1372 2050 1759 2050 
Q 2150 2050 2401 2323 
Q 2653 2597 2653 3081 
z
" transform="scale(0.015625)"/>
      <path id="ArialMT-34" d="M 2069 0 
L 2069 1097 
L 81 1097 
L 81 1613 
L 2172 4581 
L 2631 4581 
L 2631 1613 
L 3250 1613 
L 3250 1097 
L 2631 1097 
L 2631 0 
L 2069 0 
z
M 2069 1613 
L 2069 3678 
L 634 1613 
L 2069 1613 
z
" transform="scale(0.015625)"/>
     </defs>
     <use xlink:href="#ArialMT-33"/>
     <use xlink:href="#ArialMT-39" transform="translate(55.615234 0)"/>
     <use xlink:href="#ArialMT-34" transform="translate(111.230469 0)"/>
    </g>
   </g>
   <g id="text_2">
    <!-- 769 -->
    <g transform="translate(276.384856 120.151493) scale(0.11 -0.11)">
     <defs>
      <path id="ArialMT-37" d="M 303 3981 
L 303 4522 
L 3269 4522 
L 3269 4084 
Q 2831 3619 2401 2847 
Q 1972 2075 1738 1259 
Q 1569 684 1522 0 
L 944 0 
Q 953 541 1156 1306 
Q 1359 2072 1739 2783 
Q 2119 3494 2547 3981 
L 303 3981 
z
" transform="scale(0.015625)"/>
      <path id="ArialMT-36" d="M 3184 3459 
L 2625 3416 
Q 2550 3747 2413 3897 
Q 2184 4138 1850 4138 
Q 1581 4138 1378 3988 
Q 1113 3794 959 3422 
Q 806 3050 800 2363 
Q 1003 2672 1297 2822 
Q 1591 2972 1913 2972 
Q 2475 2972 2870 2558 
Q 3266 2144 3266 1488 
Q 3266 1056 3080 686 
Q 2894 316 2569 119 
Q 2244 -78 1831 -78 
Q 1128 -78 684 439 
Q 241 956 241 2144 
Q 241 3472 731 4075 
Q 1159 4600 1884 4600 
Q 2425 4600 2770 4297 
Q 3116 3994 3184 3459 
z
M 888 1484 
Q 888 1194 1011 928 
Q 1134 663 1356 523 
Q 1578 384 1822 384 
Q 2178 384 2434 671 
Q 2691 959 2691 1453 
Q 2691 1928 2437 2201 
Q 2184 2475 1800 2475 
Q 1419 2475 1153 2201 
Q 888 1928 888 1484 
z
" transform="scale(0.015625)"/>
     </defs>
     <use xlink:href="#ArialMT-37"/>
     <use xlink:href="#ArialMT-36" transform="translate(55.615234 0)"/>
     <use xlink:href="#ArialMT-39" transform="translate(111.230469 0)"/>
    </g>
   </g>
   <g id="text_3">
    <!-- 154 -->
    <g transform="translate(160.879392 112.005883) scale(0.11 -0.11)">
     <defs>
      <path id="ArialMT-31" d="M 2384 0 
L 1822 0 
L 1822 3584 
Q 1619 3391 1289 3197 
Q 959 3003 697 2906 
L 697 3450 
Q 1169 3672 1522 3987 
Q 1875 4303 2022 4600 
L 2384 4600 
L 2384 0 
z
" transform="scale(0.015625)"/>
      <path id="ArialMT-35" d="M 266 1200 
L 856 1250 
Q 922 819 1161 601 
Q 1400 384 1738 384 
Q 2144 384 2425 690 
Q 2706 997 2706 1503 
Q 2706 1984 2436 2262 
Q 2166 2541 1728 2541 
Q 1456 2541 1237 2417 
Q 1019 2294 894 2097 
L 366 2166 
L 809 4519 
L 3088 4519 
L 3088 3981 
L 1259 3981 
L 1013 2750 
Q 1425 3038 1878 3038 
Q 2478 3038 2890 2622 
Q 3303 2206 3303 1553 
Q 3303 931 2941 478 
Q 2500 -78 1738 -78 
Q 1113 -78 717 272 
Q 322 622 266 1200 
z
" transform="scale(0.015625)"/>
     </defs>
     <use xlink:href="#ArialMT-31"/>
     <use xlink:href="#ArialMT-35" transform="translate(55.615234 0)"/>
     <use xlink:href="#ArialMT-34" transform="translate(111.230469 0)"/>
    </g>
   </g>
   <g id="text_4">
    <!-- 377 -->
    <g transform="translate(138.485564 288.620757) scale(0.11 -0.11)">
     <use xlink:href="#ArialMT-33"/>
     <use xlink:href="#ArialMT-37" transform="translate(55.615234 0)"/>
     <use xlink:href="#ArialMT-37" transform="translate(111.230469 0)"/>
    </g>
   </g>
   <g id="text_5">
    <!-- 88 -->
    <g transform="translate(100.971348 205.348026) scale(0.11 -0.11)">
     <defs>
      <path id="ArialMT-38" d="M 1131 2484 
Q 781 2613 612 2850 
Q 444 3088 444 3419 
Q 444 3919 803 4259 
Q 1163 4600 1759 4600 
Q 2359 4600 2725 4251 
Q 3091 3903 3091 3403 
Q 3091 3084 2923 2848 
Q 2756 2613 2416 2484 
Q 2838 2347 3058 2040 
Q 3278 1734 3278 1309 
Q 3278 722 2862 322 
Q 2447 -78 1769 -78 
Q 1091 -78 675 323 
Q 259 725 259 1325 
Q 259 1772 486 2073 
Q 713 2375 1131 2484 
z
M 1019 3438 
Q 1019 3113 1228 2906 
Q 1438 2700 1772 2700 
Q 2097 2700 2305 2904 
Q 2513 3109 2513 3406 
Q 2513 3716 2298 3927 
Q 2084 4138 1766 4138 
Q 1444 4138 1231 3931 
Q 1019 3725 1019 3438 
z
M 838 1322 
Q 838 1081 952 856 
Q 1066 631 1291 507 
Q 1516 384 1775 384 
Q 2178 384 2440 643 
Q 2703 903 2703 1303 
Q 2703 1709 2433 1975 
Q 2163 2241 1756 2241 
Q 1359 2241 1098 1978 
Q 838 1716 838 1322 
z
" transform="scale(0.015625)"/>
     </defs>
     <use xlink:href="#ArialMT-38"/>
     <use xlink:href="#ArialMT-38" transform="translate(55.615234 0)"/>
    </g>
   </g>
   <g id="text_6">
    <!-- 126 -->
    <g transform="translate(208.535456 216.585009) scale(0.11 -0.11)">
     <defs>
      <path id="ArialMT-32" d="M 3222 541 
L 3222 0 
L 194 0 
Q 188 203 259 391 
Q 375 700 629 1000 
Q 884 1300 1366 1694 
Q 2113 2306 2375 2664 
Q 2638 3022 2638 3341 
Q 2638 3675 2398 3904 
Q 2159 4134 1775 4134 
Q 1369 4134 1125 3890 
Q 881 3647 878 3216 
L 300 3275 
Q 359 3922 746 4261 
Q 1134 4600 1788 4600 
Q 2447 4600 2831 4234 
Q 3216 3869 3216 3328 
Q 3216 3053 3103 2787 
Q 2991 2522 2730 2228 
Q 2469 1934 1863 1422 
Q 1356 997 1212 845 
Q 1069 694 975 541 
L 3222 541 
z
" transform="scale(0.015625)"/>
     </defs>
     <use xlink:href="#ArialMT-31"/>
     <use xlink:href="#ArialMT-32" transform="translate(55.615234 0)"/>
     <use xlink:href="#ArialMT-36" transform="translate(111.230469 0)"/>
    </g>
   </g>
   <g id="text_7">
    <!-- 280 -->
    <g transform="translate(157.902247 176.539647) scale(0.11 -0.11)">
     <defs>
      <path id="ArialMT-30" d="M 266 2259 
Q 266 3072 433 3567 
Q 600 4063 929 4331 
Q 1259 4600 1759 4600 
Q 2128 4600 2406 4451 
Q 2684 4303 2865 4023 
Q 3047 3744 3150 3342 
Q 3253 2941 3253 2259 
Q 3253 1453 3087 958 
Q 2922 463 2592 192 
Q 2263 -78 1759 -78 
Q 1097 -78 719 397 
Q 266 969 266 2259 
z
M 844 2259 
Q 844 1131 1108 757 
Q 1372 384 1759 384 
Q 2147 384 2411 759 
Q 2675 1134 2675 2259 
Q 2675 3391 2411 3762 
Q 2147 4134 1753 4134 
Q 1366 4134 1134 3806 
Q 844 3388 844 2259 
z
" transform="scale(0.015625)"/>
     </defs>
     <use xlink:href="#ArialMT-32"/>
     <use xlink:href="#ArialMT-38" transform="translate(55.615234 0)"/>
     <use xlink:href="#ArialMT-30" transform="translate(111.230469 0)"/>
    </g>
   </g>
   <g id="text_8">
    <!-- Heart -->
    <g transform="translate(49.508032 51.495012) scale(0.12 -0.12)">
     <defs>
      <path id="ArialMT-48" d="M 513 0 
L 513 4581 
L 1119 4581 
L 1119 2700 
L 3500 2700 
L 3500 4581 
L 4106 4581 
L 4106 0 
L 3500 0 
L 3500 2159 
L 1119 2159 
L 1119 0 
L 513 0 
z
" transform="scale(0.015625)"/>
      <path id="ArialMT-65" d="M 2694 1069 
L 3275 997 
Q 3138 488 2766 206 
Q 2394 -75 1816 -75 
Q 1088 -75 661 373 
Q 234 822 234 1631 
Q 234 2469 665 2931 
Q 1097 3394 1784 3394 
Q 2450 3394 2872 2941 
Q 3294 2488 3294 1666 
Q 3294 1616 3291 1516 
L 816 1516 
Q 847 969 1125 678 
Q 1403 388 1819 388 
Q 2128 388 2347 550 
Q 2566 713 2694 1069 
z
M 847 1978 
L 2700 1978 
Q 2663 2397 2488 2606 
Q 2219 2931 1791 2931 
Q 1403 2931 1139 2672 
Q 875 2413 847 1978 
z
" transform="scale(0.015625)"/>
      <path id="ArialMT-61" d="M 2588 409 
Q 2275 144 1986 34 
Q 1697 -75 1366 -75 
Q 819 -75 525 192 
Q 231 459 231 875 
Q 231 1119 342 1320 
Q 453 1522 633 1644 
Q 813 1766 1038 1828 
Q 1203 1872 1538 1913 
Q 2219 1994 2541 2106 
Q 2544 2222 2544 2253 
Q 2544 2597 2384 2738 
Q 2169 2928 1744 2928 
Q 1347 2928 1158 2789 
Q 969 2650 878 2297 
L 328 2372 
Q 403 2725 575 2942 
Q 747 3159 1072 3276 
Q 1397 3394 1825 3394 
Q 2250 3394 2515 3294 
Q 2781 3194 2906 3042 
Q 3031 2891 3081 2659 
Q 3109 2516 3109 2141 
L 3109 1391 
Q 3109 606 3145 398 
Q 3181 191 3288 0 
L 2700 0 
Q 2613 175 2588 409 
z
M 2541 1666 
Q 2234 1541 1622 1453 
Q 1275 1403 1131 1340 
Q 988 1278 909 1158 
Q 831 1038 831 891 
Q 831 666 1001 516 
Q 1172 366 1500 366 
Q 1825 366 2078 508 
Q 2331 650 2450 897 
Q 2541 1088 2541 1459 
L 2541 1666 
z
" transform="scale(0.015625)"/>
      <path id="ArialMT-72" d="M 416 0 
L 416 3319 
L 922 3319 
L 922 2816 
Q 1116 3169 1280 3281 
Q 1444 3394 1641 3394 
Q 1925 3394 2219 3213 
L 2025 2691 
Q 1819 2813 1613 2813 
Q 1428 2813 1281 2702 
Q 1134 2591 1072 2394 
Q 978 2094 978 1738 
L 978 0 
L 416 0 
z
" transform="scale(0.015625)"/>
      <path id="ArialMT-74" d="M 1650 503 
L 1731 6 
Q 1494 -44 1306 -44 
Q 1000 -44 831 53 
Q 663 150 594 308 
Q 525 466 525 972 
L 525 2881 
L 113 2881 
L 113 3319 
L 525 3319 
L 525 4141 
L 1084 4478 
L 1084 3319 
L 1650 3319 
L 1650 2881 
L 1084 2881 
L 1084 941 
Q 1084 700 1114 631 
Q 1144 563 1211 522 
Q 1278 481 1403 481 
Q 1497 481 1650 503 
z
" transform="scale(0.015625)"/>
     </defs>
     <use xlink:href="#ArialMT-48"/>
     <use xlink:href="#ArialMT-65" transform="translate(72.216797 0)"/>
     <use xlink:href="#ArialMT-61" transform="translate(127.832031 0)"/>
     <use xlink:href="#ArialMT-72" transform="translate(183.447266 0)"/>
     <use xlink:href="#ArialMT-74" transform="translate(216.748047 0)"/>
    </g>
   </g>
   <g id="text_9">
    <!-- Kidney -->
    <g transform="translate(282.426239 32.560676) scale(0.12 -0.12)">
     <defs>
      <path id="ArialMT-4b" d="M 469 0 
L 469 4581 
L 1075 4581 
L 1075 2309 
L 3350 4581 
L 4172 4581 
L 2250 2725 
L 4256 0 
L 3456 0 
L 1825 2319 
L 1075 1588 
L 1075 0 
L 469 0 
z
" transform="scale(0.015625)"/>
      <path id="ArialMT-69" d="M 425 3934 
L 425 4581 
L 988 4581 
L 988 3934 
L 425 3934 
z
M 425 0 
L 425 3319 
L 988 3319 
L 988 0 
L 425 0 
z
" transform="scale(0.015625)"/>
      <path id="ArialMT-64" d="M 2575 0 
L 2575 419 
Q 2259 -75 1647 -75 
Q 1250 -75 917 144 
Q 584 363 401 755 
Q 219 1147 219 1656 
Q 219 2153 384 2558 
Q 550 2963 881 3178 
Q 1213 3394 1622 3394 
Q 1922 3394 2156 3267 
Q 2391 3141 2538 2938 
L 2538 4581 
L 3097 4581 
L 3097 0 
L 2575 0 
z
M 797 1656 
Q 797 1019 1065 703 
Q 1334 388 1700 388 
Q 2069 388 2326 689 
Q 2584 991 2584 1609 
Q 2584 2291 2321 2609 
Q 2059 2928 1675 2928 
Q 1300 2928 1048 2622 
Q 797 2316 797 1656 
z
" transform="scale(0.015625)"/>
      <path id="ArialMT-6e" d="M 422 0 
L 422 3319 
L 928 3319 
L 928 2847 
Q 1294 3394 1984 3394 
Q 2284 3394 2536 3286 
Q 2788 3178 2913 3003 
Q 3038 2828 3088 2588 
Q 3119 2431 3119 2041 
L 3119 0 
L 2556 0 
L 2556 2019 
Q 2556 2363 2490 2533 
Q 2425 2703 2258 2804 
Q 2091 2906 1866 2906 
Q 1506 2906 1245 2678 
Q 984 2450 984 1813 
L 984 0 
L 422 0 
z
" transform="scale(0.015625)"/>
      <path id="ArialMT-79" d="M 397 -1278 
L 334 -750 
Q 519 -800 656 -800 
Q 844 -800 956 -737 
Q 1069 -675 1141 -563 
Q 1194 -478 1313 -144 
Q 1328 -97 1363 -6 
L 103 3319 
L 709 3319 
L 1400 1397 
Q 1534 1031 1641 628 
Q 1738 1016 1872 1384 
L 2581 3319 
L 3144 3319 
L 1881 -56 
Q 1678 -603 1566 -809 
Q 1416 -1088 1222 -1217 
Q 1028 -1347 759 -1347 
Q 597 -1347 397 -1278 
z
" transform="scale(0.015625)"/>
     </defs>
     <use xlink:href="#ArialMT-4b"/>
     <use xlink:href="#ArialMT-69" transform="translate(66.699219 0)"/>
     <use xlink:href="#ArialMT-64" transform="translate(88.916016 0)"/>
     <use xlink:href="#ArialMT-6e" transform="translate(144.53125 0)"/>
     <use xlink:href="#ArialMT-65" transform="translate(200.146484 0)"/>
     <use xlink:href="#ArialMT-79" transform="translate(255.761719 0)"/>
    </g>
   </g>
   <g id="text_10">
    <!-- Liver -->
    <g transform="translate(148.427541 332.096278) scale(0.12 -0.12)">
     <defs>
      <path id="ArialMT-4c" d="M 469 0 
L 469 4581 
L 1075 4581 
L 1075 541 
L 3331 541 
L 3331 0 
L 469 0 
z
" transform="scale(0.015625)"/>
      <path id="ArialMT-76" d="M 1344 0 
L 81 3319 
L 675 3319 
L 1388 1331 
Q 1503 1009 1600 663 
Q 1675 925 1809 1294 
L 2547 3319 
L 3125 3319 
L 1869 0 
L 1344 0 
z
" transform="scale(0.015625)"/>
     </defs>
     <use xlink:href="#ArialMT-4c"/>
     <use xlink:href="#ArialMT-69" transform="translate(55.615234 0)"/>
     <use xlink:href="#ArialMT-76" transform="translate(77.832031 0)"/>
     <use xlink:href="#ArialMT-65" transform="translate(127.832031 0)"/>
     <use xlink:href="#ArialMT-72" transform="translate(183.447266 0)"/>
    </g>
   </g>
  </g>
 </g>
 <defs>
  <clipPath id="p4f78aea0dd">
   <rect x="7.2" y="7.2" width="356.343314" height="332.64"/>
  </clipPath>
 </defs>
</svg>
