<?xml version="1.0" encoding="utf-8" standalone="no"?>
<!DOCTYPE svg PUBLIC "-//W3C//DTD SVG 1.1//EN"
  "http://www.w3.org/Graphics/SVG/1.1/DTD/svg11.dtd">
<svg xmlns:xlink="http://www.w3.org/1999/xlink" width="425.14375pt" height="497.295pt" viewBox="0 0 425.14375 497.295" xmlns="http://www.w3.org/2000/svg" version="1.1">
 <metadata>
  <rdf:RDF xmlns:dc="http://purl.org/dc/elements/1.1/" xmlns:cc="http://creativecommons.org/ns#" xmlns:rdf="http://www.w3.org/1999/02/22-rdf-syntax-ns#">
   <cc:Work>
    <dc:type rdf:resource="http://purl.org/dc/dcmitype/StillImage"/>
    <dc:date>2025-10-18T06:00:13.681418</dc:date>
    <dc:format>image/svg+xml</dc:format>
    <dc:creator>
     <cc:Agent>
      <dc:title>Matplotlib v3.10.0, https://matplotlib.org/</dc:title>
     </cc:Agent>
    </dc:creator>
   </cc:Work>
  </rdf:RDF>
 </metadata>
 <defs>
  <style type="text/css">*{stroke-linejoin: round; stroke-linecap: butt}</style>
 </defs>
 <g id="figure_1">
  <g id="patch_1">
   <path d="M 0 497.295 
L 425.14375 497.295 
L 425.14375 0 
L 0 0 
z
" style="fill: #ffffff"/>
  </g>
  <g id="axes_1">
   <g id="patch_2">
    <path d="M 39.70375 460.37625 
L 417.94375 460.37625 
L 417.94375 33.6525 
L 39.70375 33.6525 
z
" style="fill: #ffffff"/>
   </g>
   <g id="matplotlib.axis_1">
    <g id="xtick_1">
     <g id="line2d_1"/>
     <g id="text_1">
      <!-- normal -->
      <g style="fill: #262626" transform="translate(115.925312 472.465625) scale(0.12 -0.12)">
       <defs>
        <path id="ArialMT-6e" d="M 422 0 
L 422 3319 
L 928 3319 
L 928 2847 
Q 1294 3394 1984 3394 
Q 2284 3394 2536 3286 
Q 2788 3178 2913 3003 
Q 3038 2828 3088 2588 
Q 3119 2431 3119 2041 
L 3119 0 
L 2556 0 
L 2556 2019 
Q 2556 2363 2490 2533 
Q 2425 2703 2258 2804 
Q 2091 2906 1866 2906 
Q 1506 2906 1245 2678 
Q 984 2450 984 1813 
L 984 0 
L 422 0 
z
" transform="scale(0.015625)"/>
        <path id="ArialMT-6f" d="M 213 1659 
Q 213 2581 725 3025 
Q 1153 3394 1769 3394 
Q 2453 3394 2887 2945 
Q 3322 2497 3322 1706 
Q 3322 1066 3130 698 
Q 2938 331 2570 128 
Q 2203 -75 1769 -75 
Q 1072 -75 642 372 
Q 213 819 213 1659 
z
M 791 1659 
Q 791 1022 1069 705 
Q 1347 388 1769 388 
Q 2188 388 2466 706 
Q 2744 1025 2744 1678 
Q 2744 2294 2464 2611 
Q 2184 2928 1769 2928 
Q 1347 2928 1069 2612 
Q 791 2297 791 1659 
z
" transform="scale(0.015625)"/>
        <path id="ArialMT-72" d="M 416 0 
L 416 3319 
L 922 3319 
L 922 2816 
Q 1116 3169 1280 3281 
Q 1444 3394 1641 3394 
Q 1925 3394 2219 3213 
L 2025 2691 
Q 1819 2813 1613 2813 
Q 1428 2813 1281 2702 
Q 1134 2591 1072 2394 
Q 978 2094 978 1738 
L 978 0 
L 416 0 
z
" transform="scale(0.015625)"/>
        <path id="ArialMT-6d" d="M 422 0 
L 422 3319 
L 925 3319 
L 925 2853 
Q 1081 3097 1340 3245 
Q 1600 3394 1931 3394 
Q 2300 3394 2536 3241 
Q 2772 3088 2869 2813 
Q 3263 3394 3894 3394 
Q 4388 3394 4653 3120 
Q 4919 2847 4919 2278 
L 4919 0 
L 4359 0 
L 4359 2091 
Q 4359 2428 4304 2576 
Q 4250 2725 4106 2815 
Q 3963 2906 3769 2906 
Q 3419 2906 3187 2673 
Q 2956 2441 2956 1928 
L 2956 0 
L 2394 0 
L 2394 2156 
Q 2394 2531 2256 2718 
Q 2119 2906 1806 2906 
Q 1569 2906 1367 2781 
Q 1166 2656 1075 2415 
Q 984 2175 984 1722 
L 984 0 
L 422 0 
z
" transform="scale(0.015625)"/>
        <path id="ArialMT-61" d="M 2588 409 
Q 2275 144 1986 34 
Q 1697 -75 1366 -75 
Q 819 -75 525 192 
Q 231 459 231 875 
Q 231 1119 342 1320 
Q 453 1522 633 1644 
Q 813 1766 1038 1828 
Q 1203 1872 1538 1913 
Q 2219 1994 2541 2106 
Q 2544 2222 2544 2253 
Q 2544 2597 2384 2738 
Q 2169 2928 1744 2928 
Q 1347 2928 1158 2789 
Q 969 2650 878 2297 
L 328 2372 
Q 403 2725 575 2942 
Q 747 3159 1072 3276 
Q 1397 3394 1825 3394 
Q 2250 3394 2515 3294 
Q 2781 3194 2906 3042 
Q 3031 2891 3081 2659 
Q 3109 2516 3109 2141 
L 3109 1391 
Q 3109 606 3145 398 
Q 3181 191 3288 0 
L 2700 0 
Q 2613 175 2588 409 
z
M 2541 1666 
Q 2234 1541 1622 1453 
Q 1275 1403 1131 1340 
Q 988 1278 909 1158 
Q 831 1038 831 891 
Q 831 666 1001 516 
Q 1172 366 1500 366 
Q 1825 366 2078 508 
Q 2331 650 2450 897 
Q 2541 1088 2541 1459 
L 2541 1666 
z
" transform="scale(0.015625)"/>
        <path id="ArialMT-6c" d="M 409 0 
L 409 4581 
L 972 4581 
L 972 0 
L 409 0 
z
" transform="scale(0.015625)"/>
       </defs>
       <use xlink:href="#ArialMT-6e"/>
       <use xlink:href="#ArialMT-6f" transform="translate(55.615234 0)"/>
       <use xlink:href="#ArialMT-72" transform="translate(111.230469 0)"/>
       <use xlink:href="#ArialMT-6d" transform="translate(144.53125 0)"/>
       <use xlink:href="#ArialMT-61" transform="translate(227.832031 0)"/>
       <use xlink:href="#ArialMT-6c" transform="translate(283.447266 0)"/>
      </g>
     </g>
    </g>
    <g id="xtick_2">
     <g id="line2d_2"/>
     <g id="text_2">
      <!-- pathological -->
      <g style="fill: #262626" transform="translate(291.361562 472.465625) scale(0.12 -0.12)">
       <defs>
        <path id="ArialMT-70" d="M 422 -1272 
L 422 3319 
L 934 3319 
L 934 2888 
Q 1116 3141 1344 3267 
Q 1572 3394 1897 3394 
Q 2322 3394 2647 3175 
Q 2972 2956 3137 2557 
Q 3303 2159 3303 1684 
Q 3303 1175 3120 767 
Q 2938 359 2589 142 
Q 2241 -75 1856 -75 
Q 1575 -75 1351 44 
Q 1128 163 984 344 
L 984 -1272 
L 422 -1272 
z
M 931 1641 
Q 931 1000 1190 694 
Q 1450 388 1819 388 
Q 2194 388 2461 705 
Q 2728 1022 2728 1688 
Q 2728 2322 2467 2637 
Q 2206 2953 1844 2953 
Q 1484 2953 1207 2617 
Q 931 2281 931 1641 
z
" transform="scale(0.015625)"/>
        <path id="ArialMT-74" d="M 1650 503 
L 1731 6 
Q 1494 -44 1306 -44 
Q 1000 -44 831 53 
Q 663 150 594 308 
Q 525 466 525 972 
L 525 2881 
L 113 2881 
L 113 3319 
L 525 3319 
L 525 4141 
L 1084 4478 
L 1084 3319 
L 1650 3319 
L 1650 2881 
L 1084 2881 
L 1084 941 
Q 1084 700 1114 631 
Q 1144 563 1211 522 
Q 1278 481 1403 481 
Q 1497 481 1650 503 
z
" transform="scale(0.015625)"/>
        <path id="ArialMT-68" d="M 422 0 
L 422 4581 
L 984 4581 
L 984 2938 
Q 1378 3394 1978 3394 
Q 2347 3394 2619 3248 
Q 2891 3103 3008 2847 
Q 3125 2591 3125 2103 
L 3125 0 
L 2563 0 
L 2563 2103 
Q 2563 2525 2380 2717 
Q 2197 2909 1863 2909 
Q 1613 2909 1392 2779 
Q 1172 2650 1078 2428 
Q 984 2206 984 1816 
L 984 0 
L 422 0 
z
" transform="scale(0.015625)"/>
        <path id="ArialMT-67" d="M 319 -275 
L 866 -356 
Q 900 -609 1056 -725 
Q 1266 -881 1628 -881 
Q 2019 -881 2231 -725 
Q 2444 -569 2519 -288 
Q 2563 -116 2559 434 
Q 2191 0 1641 0 
Q 956 0 581 494 
Q 206 988 206 1678 
Q 206 2153 378 2554 
Q 550 2956 876 3175 
Q 1203 3394 1644 3394 
Q 2231 3394 2613 2919 
L 2613 3319 
L 3131 3319 
L 3131 450 
Q 3131 -325 2973 -648 
Q 2816 -972 2473 -1159 
Q 2131 -1347 1631 -1347 
Q 1038 -1347 672 -1080 
Q 306 -813 319 -275 
z
M 784 1719 
Q 784 1066 1043 766 
Q 1303 466 1694 466 
Q 2081 466 2343 764 
Q 2606 1063 2606 1700 
Q 2606 2309 2336 2618 
Q 2066 2928 1684 2928 
Q 1309 2928 1046 2623 
Q 784 2319 784 1719 
z
" transform="scale(0.015625)"/>
        <path id="ArialMT-69" d="M 425 3934 
L 425 4581 
L 988 4581 
L 988 3934 
L 425 3934 
z
M 425 0 
L 425 3319 
L 988 3319 
L 988 0 
L 425 0 
z
" transform="scale(0.015625)"/>
        <path id="ArialMT-63" d="M 2588 1216 
L 3141 1144 
Q 3050 572 2676 248 
Q 2303 -75 1759 -75 
Q 1078 -75 664 370 
Q 250 816 250 1647 
Q 250 2184 428 2587 
Q 606 2991 970 3192 
Q 1334 3394 1763 3394 
Q 2303 3394 2647 3120 
Q 2991 2847 3088 2344 
L 2541 2259 
Q 2463 2594 2264 2762 
Q 2066 2931 1784 2931 
Q 1359 2931 1093 2626 
Q 828 2322 828 1663 
Q 828 994 1084 691 
Q 1341 388 1753 388 
Q 2084 388 2306 591 
Q 2528 794 2588 1216 
z
" transform="scale(0.015625)"/>
       </defs>
       <use xlink:href="#ArialMT-70"/>
       <use xlink:href="#ArialMT-61" transform="translate(55.615234 0)"/>
       <use xlink:href="#ArialMT-74" transform="translate(111.230469 0)"/>
       <use xlink:href="#ArialMT-68" transform="translate(139.013672 0)"/>
       <use xlink:href="#ArialMT-6f" transform="translate(194.628906 0)"/>
       <use xlink:href="#ArialMT-6c" transform="translate(250.244141 0)"/>
       <use xlink:href="#ArialMT-6f" transform="translate(272.460938 0)"/>
       <use xlink:href="#ArialMT-67" transform="translate(328.076172 0)"/>
       <use xlink:href="#ArialMT-69" transform="translate(383.691406 0)"/>
       <use xlink:href="#ArialMT-63" transform="translate(405.908203 0)"/>
       <use xlink:href="#ArialMT-61" transform="translate(455.908203 0)"/>
       <use xlink:href="#ArialMT-6c" transform="translate(511.523438 0)"/>
      </g>
     </g>
    </g>
    <g id="text_3">
     <!-- Group -->
     <g style="fill: #262626" transform="translate(210.8275 487.726875) scale(0.12 -0.12)">
      <defs>
       <path id="Arial-BoldMT-47" d="M 2597 1684 
L 2597 2456 
L 4591 2456 
L 4591 631 
Q 4300 350 3748 136 
Q 3197 -78 2631 -78 
Q 1913 -78 1378 223 
Q 844 525 575 1086 
Q 306 1647 306 2306 
Q 306 3022 606 3578 
Q 906 4134 1484 4431 
Q 1925 4659 2581 4659 
Q 3434 4659 3914 4301 
Q 4394 3944 4531 3313 
L 3613 3141 
Q 3516 3478 3248 3673 
Q 2981 3869 2581 3869 
Q 1975 3869 1617 3484 
Q 1259 3100 1259 2344 
Q 1259 1528 1621 1120 
Q 1984 713 2572 713 
Q 2863 713 3155 827 
Q 3447 941 3656 1103 
L 3656 1684 
L 2597 1684 
z
" transform="scale(0.015625)"/>
       <path id="Arial-BoldMT-72" d="M 1300 0 
L 422 0 
L 422 3319 
L 1238 3319 
L 1238 2847 
Q 1447 3181 1614 3287 
Q 1781 3394 1994 3394 
Q 2294 3394 2572 3228 
L 2300 2463 
Q 2078 2606 1888 2606 
Q 1703 2606 1575 2504 
Q 1447 2403 1373 2137 
Q 1300 1872 1300 1025 
L 1300 0 
z
" transform="scale(0.015625)"/>
       <path id="Arial-BoldMT-6f" d="M 256 1706 
Q 256 2144 472 2553 
Q 688 2963 1083 3178 
Q 1478 3394 1966 3394 
Q 2719 3394 3200 2905 
Q 3681 2416 3681 1669 
Q 3681 916 3195 420 
Q 2709 -75 1972 -75 
Q 1516 -75 1102 131 
Q 688 338 472 736 
Q 256 1134 256 1706 
z
M 1156 1659 
Q 1156 1166 1390 903 
Q 1625 641 1969 641 
Q 2313 641 2545 903 
Q 2778 1166 2778 1666 
Q 2778 2153 2545 2415 
Q 2313 2678 1969 2678 
Q 1625 2678 1390 2415 
Q 1156 2153 1156 1659 
z
" transform="scale(0.015625)"/>
       <path id="Arial-BoldMT-75" d="M 2644 0 
L 2644 497 
Q 2463 231 2167 78 
Q 1872 -75 1544 -75 
Q 1209 -75 943 72 
Q 678 219 559 484 
Q 441 750 441 1219 
L 441 3319 
L 1319 3319 
L 1319 1794 
Q 1319 1094 1367 936 
Q 1416 778 1544 686 
Q 1672 594 1869 594 
Q 2094 594 2272 717 
Q 2450 841 2515 1023 
Q 2581 1206 2581 1919 
L 2581 3319 
L 3459 3319 
L 3459 0 
L 2644 0 
z
" transform="scale(0.015625)"/>
       <path id="Arial-BoldMT-70" d="M 434 3319 
L 1253 3319 
L 1253 2831 
Q 1413 3081 1684 3237 
Q 1956 3394 2288 3394 
Q 2866 3394 3269 2941 
Q 3672 2488 3672 1678 
Q 3672 847 3265 386 
Q 2859 -75 2281 -75 
Q 2006 -75 1782 34 
Q 1559 144 1313 409 
L 1313 -1263 
L 434 -1263 
L 434 3319 
z
M 1303 1716 
Q 1303 1156 1525 889 
Q 1747 622 2066 622 
Q 2372 622 2575 867 
Q 2778 1113 2778 1672 
Q 2778 2194 2568 2447 
Q 2359 2700 2050 2700 
Q 1728 2700 1515 2451 
Q 1303 2203 1303 1716 
z
" transform="scale(0.015625)"/>
      </defs>
      <use xlink:href="#Arial-BoldMT-47"/>
      <use xlink:href="#Arial-BoldMT-72" transform="translate(77.783203 0)"/>
      <use xlink:href="#Arial-BoldMT-6f" transform="translate(116.699219 0)"/>
      <use xlink:href="#Arial-BoldMT-75" transform="translate(177.783203 0)"/>
      <use xlink:href="#Arial-BoldMT-70" transform="translate(238.867188 0)"/>
     </g>
    </g>
   </g>
   <g id="matplotlib.axis_2">
    <g id="ytick_1">
     <g id="line2d_3">
      <path d="M 39.70375 396.098386 
L 417.94375 396.098386 
" clip-path="url(#p4393c489fb)" style="fill: none; stroke: #cccccc; stroke-width: 0.8; stroke-linecap: round"/>
     </g>
     <g id="line2d_4"/>
     <g id="text_4">
      <!-- 6.0 -->
      <g style="fill: #262626" transform="translate(22.30375 399.677292) scale(0.1 -0.1)">
       <defs>
        <path id="ArialMT-36" d="M 3184 3459 
L 2625 3416 
Q 2550 3747 2413 3897 
Q 2184 4138 1850 4138 
Q 1581 4138 1378 3988 
Q 1113 3794 959 3422 
Q 806 3050 800 2363 
Q 1003 2672 1297 2822 
Q 1591 2972 1913 2972 
Q 2475 2972 2870 2558 
Q 3266 2144 3266 1488 
Q 3266 1056 3080 686 
Q 2894 316 2569 119 
Q 2244 -78 1831 -78 
Q 1128 -78 684 439 
Q 241 956 241 2144 
Q 241 3472 731 4075 
Q 1159 4600 1884 4600 
Q 2425 4600 2770 4297 
Q 3116 3994 3184 3459 
z
M 888 1484 
Q 888 1194 1011 928 
Q 1134 663 1356 523 
Q 1578 384 1822 384 
Q 2178 384 2434 671 
Q 2691 959 2691 1453 
Q 2691 1928 2437 2201 
Q 2184 2475 1800 2475 
Q 1419 2475 1153 2201 
Q 888 1928 888 1484 
z
" transform="scale(0.015625)"/>
        <path id="ArialMT-2e" d="M 581 0 
L 581 641 
L 1222 641 
L 1222 0 
L 581 0 
z
" transform="scale(0.015625)"/>
        <path id="ArialMT-30" d="M 266 2259 
Q 266 3072 433 3567 
Q 600 4063 929 4331 
Q 1259 4600 1759 4600 
Q 2128 4600 2406 4451 
Q 2684 4303 2865 4023 
Q 3047 3744 3150 3342 
Q 3253 2941 3253 2259 
Q 3253 1453 3087 958 
Q 2922 463 2592 192 
Q 2263 -78 1759 -78 
Q 1097 -78 719 397 
Q 266 969 266 2259 
z
M 844 2259 
Q 844 1131 1108 757 
Q 1372 384 1759 384 
Q 2147 384 2411 759 
Q 2675 1134 2675 2259 
Q 2675 3391 2411 3762 
Q 2147 4134 1753 4134 
Q 1366 4134 1134 3806 
Q 844 3388 844 2259 
z
" transform="scale(0.015625)"/>
       </defs>
       <use xlink:href="#ArialMT-36"/>
       <use xlink:href="#ArialMT-2e" transform="translate(55.615234 0)"/>
       <use xlink:href="#ArialMT-30" transform="translate(83.398438 0)"/>
      </g>
     </g>
    </g>
    <g id="ytick_2">
     <g id="line2d_5">
      <path d="M 39.70375 327.299592 
L 417.94375 327.299592 
" clip-path="url(#p4393c489fb)" style="fill: none; stroke: #cccccc; stroke-width: 0.8; stroke-linecap: round"/>
     </g>
     <g id="line2d_6"/>
     <g id="text_5">
      <!-- 6.5 -->
      <g style="fill: #262626" transform="translate(22.30375 330.878498) scale(0.1 -0.1)">
       <defs>
        <path id="ArialMT-35" d="M 266 1200 
L 856 1250 
Q 922 819 1161 601 
Q 1400 384 1738 384 
Q 2144 384 2425 690 
Q 2706 997 2706 1503 
Q 2706 1984 2436 2262 
Q 2166 2541 1728 2541 
Q 1456 2541 1237 2417 
Q 1019 2294 894 2097 
L 366 2166 
L 809 4519 
L 3088 4519 
L 3088 3981 
L 1259 3981 
L 1013 2750 
Q 1425 3038 1878 3038 
Q 2478 3038 2890 2622 
Q 3303 2206 3303 1553 
Q 3303 931 2941 478 
Q 2500 -78 1738 -78 
Q 1113 -78 717 272 
Q 322 622 266 1200 
z
" transform="scale(0.015625)"/>
       </defs>
       <use xlink:href="#ArialMT-36"/>
       <use xlink:href="#ArialMT-2e" transform="translate(55.615234 0)"/>
       <use xlink:href="#ArialMT-35" transform="translate(83.398438 0)"/>
      </g>
     </g>
    </g>
    <g id="ytick_3">
     <g id="line2d_7">
      <path d="M 39.70375 258.500798 
L 417.94375 258.500798 
" clip-path="url(#p4393c489fb)" style="fill: none; stroke: #cccccc; stroke-width: 0.8; stroke-linecap: round"/>
     </g>
     <g id="line2d_8"/>
     <g id="text_6">
      <!-- 7.0 -->
      <g style="fill: #262626" transform="translate(22.30375 262.079704) scale(0.1 -0.1)">
       <defs>
        <path id="ArialMT-37" d="M 303 3981 
L 303 4522 
L 3269 4522 
L 3269 4084 
Q 2831 3619 2401 2847 
Q 1972 2075 1738 1259 
Q 1569 684 1522 0 
L 944 0 
Q 953 541 1156 1306 
Q 1359 2072 1739 2783 
Q 2119 3494 2547 3981 
L 303 3981 
z
" transform="scale(0.015625)"/>
       </defs>
       <use xlink:href="#ArialMT-37"/>
       <use xlink:href="#ArialMT-2e" transform="translate(55.615234 0)"/>
       <use xlink:href="#ArialMT-30" transform="translate(83.398438 0)"/>
      </g>
     </g>
    </g>
    <g id="ytick_4">
     <g id="line2d_9">
      <path d="M 39.70375 189.702004 
L 417.94375 189.702004 
" clip-path="url(#p4393c489fb)" style="fill: none; stroke: #cccccc; stroke-width: 0.8; stroke-linecap: round"/>
     </g>
     <g id="line2d_10"/>
     <g id="text_7">
      <!-- 7.5 -->
      <g style="fill: #262626" transform="translate(22.30375 193.28091) scale(0.1 -0.1)">
       <use xlink:href="#ArialMT-37"/>
       <use xlink:href="#ArialMT-2e" transform="translate(55.615234 0)"/>
       <use xlink:href="#ArialMT-35" transform="translate(83.398438 0)"/>
      </g>
     </g>
    </g>
    <g id="ytick_5">
     <g id="line2d_11">
      <path d="M 39.70375 120.90321 
L 417.94375 120.90321 
" clip-path="url(#p4393c489fb)" style="fill: none; stroke: #cccccc; stroke-width: 0.8; stroke-linecap: round"/>
     </g>
     <g id="line2d_12"/>
     <g id="text_8">
      <!-- 8.0 -->
      <g style="fill: #262626" transform="translate(22.30375 124.482116) scale(0.1 -0.1)">
       <defs>
        <path id="ArialMT-38" d="M 1131 2484 
Q 781 2613 612 2850 
Q 444 3088 444 3419 
Q 444 3919 803 4259 
Q 1163 4600 1759 4600 
Q 2359 4600 2725 4251 
Q 3091 3903 3091 3403 
Q 3091 3084 2923 2848 
Q 2756 2613 2416 2484 
Q 2838 2347 3058 2040 
Q 3278 1734 3278 1309 
Q 3278 722 2862 322 
Q 2447 -78 1769 -78 
Q 1091 -78 675 323 
Q 259 725 259 1325 
Q 259 1772 486 2073 
Q 713 2375 1131 2484 
z
M 1019 3438 
Q 1019 3113 1228 2906 
Q 1438 2700 1772 2700 
Q 2097 2700 2305 2904 
Q 2513 3109 2513 3406 
Q 2513 3716 2298 3927 
Q 2084 4138 1766 4138 
Q 1444 4138 1231 3931 
Q 1019 3725 1019 3438 
z
M 838 1322 
Q 838 1081 952 856 
Q 1066 631 1291 507 
Q 1516 384 1775 384 
Q 2178 384 2440 643 
Q 2703 903 2703 1303 
Q 2703 1709 2433 1975 
Q 2163 2241 1756 2241 
Q 1359 2241 1098 1978 
Q 838 1716 838 1322 
z
" transform="scale(0.015625)"/>
       </defs>
       <use xlink:href="#ArialMT-38"/>
       <use xlink:href="#ArialMT-2e" transform="translate(55.615234 0)"/>
       <use xlink:href="#ArialMT-30" transform="translate(83.398438 0)"/>
      </g>
     </g>
    </g>
    <g id="ytick_6">
     <g id="line2d_13">
      <path d="M 39.70375 52.104416 
L 417.94375 52.104416 
" clip-path="url(#p4393c489fb)" style="fill: none; stroke: #cccccc; stroke-width: 0.8; stroke-linecap: round"/>
     </g>
     <g id="line2d_14"/>
     <g id="text_9">
      <!-- 8.5 -->
      <g style="fill: #262626" transform="translate(22.30375 55.683322) scale(0.1 -0.1)">
       <use xlink:href="#ArialMT-38"/>
       <use xlink:href="#ArialMT-2e" transform="translate(55.615234 0)"/>
       <use xlink:href="#ArialMT-35" transform="translate(83.398438 0)"/>
      </g>
     </g>
    </g>
    <g id="text_10">
     <!-- Mean Gene Expression -->
     <g style="fill: #262626" transform="translate(15.935625 313.033125) rotate(-90) scale(0.12 -0.12)">
      <defs>
       <path id="Arial-BoldMT-4d" d="M 453 0 
L 453 4581 
L 1838 4581 
L 2669 1456 
L 3491 4581 
L 4878 4581 
L 4878 0 
L 4019 0 
L 4019 3606 
L 3109 0 
L 2219 0 
L 1313 3606 
L 1313 0 
L 453 0 
z
" transform="scale(0.015625)"/>
       <path id="Arial-BoldMT-65" d="M 2381 1056 
L 3256 909 
Q 3088 428 2723 176 
Q 2359 -75 1813 -75 
Q 947 -75 531 491 
Q 203 944 203 1634 
Q 203 2459 634 2926 
Q 1066 3394 1725 3394 
Q 2466 3394 2894 2905 
Q 3322 2416 3303 1406 
L 1103 1406 
Q 1113 1016 1316 798 
Q 1519 581 1822 581 
Q 2028 581 2168 693 
Q 2309 806 2381 1056 
z
M 2431 1944 
Q 2422 2325 2234 2523 
Q 2047 2722 1778 2722 
Q 1491 2722 1303 2513 
Q 1116 2303 1119 1944 
L 2431 1944 
z
" transform="scale(0.015625)"/>
       <path id="Arial-BoldMT-61" d="M 1116 2306 
L 319 2450 
Q 453 2931 781 3162 
Q 1109 3394 1756 3394 
Q 2344 3394 2631 3255 
Q 2919 3116 3036 2902 
Q 3153 2688 3153 2116 
L 3144 1091 
Q 3144 653 3186 445 
Q 3228 238 3344 0 
L 2475 0 
Q 2441 88 2391 259 
Q 2369 338 2359 363 
Q 2134 144 1878 34 
Q 1622 -75 1331 -75 
Q 819 -75 523 203 
Q 228 481 228 906 
Q 228 1188 362 1408 
Q 497 1628 739 1745 
Q 981 1863 1438 1950 
Q 2053 2066 2291 2166 
L 2291 2253 
Q 2291 2506 2166 2614 
Q 2041 2722 1694 2722 
Q 1459 2722 1328 2630 
Q 1197 2538 1116 2306 
z
M 2291 1594 
Q 2122 1538 1756 1459 
Q 1391 1381 1278 1306 
Q 1106 1184 1106 997 
Q 1106 813 1243 678 
Q 1381 544 1594 544 
Q 1831 544 2047 700 
Q 2206 819 2256 991 
Q 2291 1103 2291 1419 
L 2291 1594 
z
" transform="scale(0.015625)"/>
       <path id="Arial-BoldMT-6e" d="M 3478 0 
L 2600 0 
L 2600 1694 
Q 2600 2231 2544 2389 
Q 2488 2547 2361 2634 
Q 2234 2722 2056 2722 
Q 1828 2722 1647 2597 
Q 1466 2472 1398 2265 
Q 1331 2059 1331 1503 
L 1331 0 
L 453 0 
L 453 3319 
L 1269 3319 
L 1269 2831 
Q 1703 3394 2363 3394 
Q 2653 3394 2893 3289 
Q 3134 3184 3257 3021 
Q 3381 2859 3429 2653 
Q 3478 2447 3478 2063 
L 3478 0 
z
" transform="scale(0.015625)"/>
       <path id="Arial-BoldMT-20" transform="scale(0.015625)"/>
       <path id="Arial-BoldMT-45" d="M 466 0 
L 466 4581 
L 3863 4581 
L 3863 3806 
L 1391 3806 
L 1391 2791 
L 3691 2791 
L 3691 2019 
L 1391 2019 
L 1391 772 
L 3950 772 
L 3950 0 
L 466 0 
z
" transform="scale(0.015625)"/>
       <path id="Arial-BoldMT-78" d="M 38 0 
L 1234 1709 
L 88 3319 
L 1159 3319 
L 1747 2406 
L 2366 3319 
L 3397 3319 
L 2272 1747 
L 3500 0 
L 2422 0 
L 1747 1028 
L 1066 0 
L 38 0 
z
" transform="scale(0.015625)"/>
       <path id="Arial-BoldMT-73" d="M 150 947 
L 1031 1081 
Q 1088 825 1259 692 
Q 1431 559 1741 559 
Q 2081 559 2253 684 
Q 2369 772 2369 919 
Q 2369 1019 2306 1084 
Q 2241 1147 2013 1200 
Q 950 1434 666 1628 
Q 272 1897 272 2375 
Q 272 2806 612 3100 
Q 953 3394 1669 3394 
Q 2350 3394 2681 3172 
Q 3013 2950 3138 2516 
L 2309 2363 
Q 2256 2556 2107 2659 
Q 1959 2763 1684 2763 
Q 1338 2763 1188 2666 
Q 1088 2597 1088 2488 
Q 1088 2394 1175 2328 
Q 1294 2241 1995 2081 
Q 2697 1922 2975 1691 
Q 3250 1456 3250 1038 
Q 3250 581 2869 253 
Q 2488 -75 1741 -75 
Q 1063 -75 667 200 
Q 272 475 150 947 
z
" transform="scale(0.015625)"/>
       <path id="Arial-BoldMT-69" d="M 459 3769 
L 459 4581 
L 1338 4581 
L 1338 3769 
L 459 3769 
z
M 459 0 
L 459 3319 
L 1338 3319 
L 1338 0 
L 459 0 
z
" transform="scale(0.015625)"/>
      </defs>
      <use xlink:href="#Arial-BoldMT-4d"/>
      <use xlink:href="#Arial-BoldMT-65" transform="translate(83.300781 0)"/>
      <use xlink:href="#Arial-BoldMT-61" transform="translate(138.916016 0)"/>
      <use xlink:href="#Arial-BoldMT-6e" transform="translate(194.53125 0)"/>
      <use xlink:href="#Arial-BoldMT-20" transform="translate(255.615234 0)"/>
      <use xlink:href="#Arial-BoldMT-47" transform="translate(283.398438 0)"/>
      <use xlink:href="#Arial-BoldMT-65" transform="translate(361.181641 0)"/>
      <use xlink:href="#Arial-BoldMT-6e" transform="translate(416.796875 0)"/>
      <use xlink:href="#Arial-BoldMT-65" transform="translate(477.880859 0)"/>
      <use xlink:href="#Arial-BoldMT-20" transform="translate(533.496094 0)"/>
      <use xlink:href="#Arial-BoldMT-45" transform="translate(561.279297 0)"/>
      <use xlink:href="#Arial-BoldMT-78" transform="translate(627.978516 0)"/>
      <use xlink:href="#Arial-BoldMT-70" transform="translate(683.59375 0)"/>
      <use xlink:href="#Arial-BoldMT-72" transform="translate(744.677734 0)"/>
      <use xlink:href="#Arial-BoldMT-65" transform="translate(783.59375 0)"/>
      <use xlink:href="#Arial-BoldMT-73" transform="translate(839.208984 0)"/>
      <use xlink:href="#Arial-BoldMT-73" transform="translate(894.824219 0)"/>
      <use xlink:href="#Arial-BoldMT-69" transform="translate(950.439453 0)"/>
      <use xlink:href="#Arial-BoldMT-6f" transform="translate(978.222656 0)"/>
      <use xlink:href="#Arial-BoldMT-6e" transform="translate(1039.306641 0)"/>
     </g>
    </g>
   </g>
   <g id="patch_3">
    <path d="M 86.98375 359.337388 
L 181.54375 359.337388 
L 181.54375 293.490882 
L 86.98375 293.490882 
L 86.98375 359.337388 
z
" clip-path="url(#p4393c489fb)" style="fill: #88a5bb; opacity: 0.8; stroke: #616161; stroke-width: 1.5; stroke-linejoin: miter"/>
   </g>
   <g id="line2d_15">
    <path d="M 134.26375 359.337388 
L 134.26375 408.655531 
" clip-path="url(#p4393c489fb)" style="fill: none; stroke: #616161; stroke-width: 1.5"/>
   </g>
   <g id="line2d_16">
    <path d="M 134.26375 293.490882 
L 134.26375 223.203085 
" clip-path="url(#p4393c489fb)" style="fill: none; stroke: #616161; stroke-width: 1.5"/>
   </g>
   <g id="line2d_17">
    <path d="M 110.62375 408.655531 
L 157.90375 408.655531 
" clip-path="url(#p4393c489fb)" style="fill: none; stroke: #616161; stroke-width: 1.5; stroke-linecap: round"/>
   </g>
   <g id="line2d_18">
    <path d="M 110.62375 223.203085 
L 157.90375 223.203085 
" clip-path="url(#p4393c489fb)" style="fill: none; stroke: #616161; stroke-width: 1.5; stroke-linecap: round"/>
   </g>
   <g id="line2d_19">
    <defs>
     <path id="me3a349c8f7" d="M 0 3 
C 0.795609 3 1.55874 2.683901 2.12132 2.12132 
C 2.683901 1.55874 3 0.795609 3 0 
C 3 -0.795609 2.683901 -1.55874 2.12132 -2.12132 
C 1.55874 -2.683901 0.795609 -3 0 -3 
C -0.795609 -3 -1.55874 -2.683901 -2.12132 -2.12132 
C -2.683901 -1.55874 -3 -0.795609 -3 0 
C -3 0.795609 -2.683901 1.55874 -2.12132 2.12132 
C -1.55874 2.683901 -0.795609 3 0 3 
z
" style="stroke: #616161"/>
    </defs>
    <g clip-path="url(#p4393c489fb)">
     <use xlink:href="#me3a349c8f7" x="134.26375" y="193.26185" style="fill-opacity: 0; stroke: #616161"/>
    </g>
   </g>
   <g id="patch_4">
    <path d="M 276.10375 332.313632 
L 370.66375 332.313632 
L 370.66375 190.235672 
L 276.10375 190.235672 
L 276.10375 332.313632 
z
" clip-path="url(#p4393c489fb)" style="fill: #db9a89; opacity: 0.8; stroke: #616161; stroke-width: 1.5; stroke-linejoin: miter"/>
   </g>
   <g id="line2d_20">
    <path d="M 323.38375 332.313632 
L 323.38375 440.979716 
" clip-path="url(#p4393c489fb)" style="fill: none; stroke: #616161; stroke-width: 1.5"/>
   </g>
   <g id="line2d_21">
    <path d="M 323.38375 190.235672 
L 323.38375 53.049034 
" clip-path="url(#p4393c489fb)" style="fill: none; stroke: #616161; stroke-width: 1.5"/>
   </g>
   <g id="line2d_22">
    <path d="M 299.74375 440.979716 
L 347.02375 440.979716 
" clip-path="url(#p4393c489fb)" style="fill: none; stroke: #616161; stroke-width: 1.5; stroke-linecap: round"/>
   </g>
   <g id="line2d_23">
    <path d="M 299.74375 53.049034 
L 347.02375 53.049034 
" clip-path="url(#p4393c489fb)" style="fill: none; stroke: #616161; stroke-width: 1.5; stroke-linecap: round"/>
   </g>
   <g id="line2d_24"/>
   <g id="line2d_25">
    <path d="M 86.98375 326.547446 
L 181.54375 326.547446 
" clip-path="url(#p4393c489fb)" style="fill: none; stroke: #616161; stroke-width: 1.5"/>
   </g>
   <g id="line2d_26">
    <path d="M 276.10375 269.809927 
L 370.66375 269.809927 
" clip-path="url(#p4393c489fb)" style="fill: none; stroke: #616161; stroke-width: 1.5"/>
   </g>
   <g id="patch_5">
    <path d="M 39.70375 460.37625 
L 39.70375 33.6525 
" style="fill: none; stroke: #cccccc; stroke-linejoin: miter; stroke-linecap: square"/>
   </g>
   <g id="patch_6">
    <path d="M 39.70375 460.37625 
L 417.94375 460.37625 
" style="fill: none; stroke: #cccccc; stroke-linejoin: miter; stroke-linecap: square"/>
   </g>
   <g id="PathCollection_1">
    <defs>
     <path id="m7458e1ae79" d="M 0 1.5 
C 0.397805 1.5 0.77937 1.341951 1.06066 1.06066 
C 1.341951 0.77937 1.5 0.397805 1.5 0 
C 1.5 -0.397805 1.341951 -0.77937 1.06066 -1.06066 
C 0.77937 -1.341951 0.397805 -1.5 0 -1.5 
C -0.397805 -1.5 -0.77937 -1.341951 -1.06066 -1.06066 
C -1.341951 -0.77937 -1.5 -0.397805 -1.5 0 
C -1.5 0.397805 -1.341951 0.77937 -1.06066 1.06066 
C -0.77937 1.341951 -0.397805 1.5 0 1.5 
z
"/>
    </defs>
    <g clip-path="url(#p4393c489fb)">
     <use xlink:href="#m7458e1ae79" x="137.624975" y="268.933916" style="fill: #404040; fill-opacity: 0.4"/>
     <use xlink:href="#m7458e1ae79" x="130.68006" y="299.931377" style="fill: #404040; fill-opacity: 0.4"/>
     <use xlink:href="#m7458e1ae79" x="152.373916" y="324.93133" style="fill: #404040; fill-opacity: 0.4"/>
     <use xlink:href="#m7458e1ae79" x="115.398179" y="245.268715" style="fill: #404040; fill-opacity: 0.4"/>
     <use xlink:href="#m7458e1ae79" x="133.74311" y="333.028074" style="fill: #404040; fill-opacity: 0.4"/>
     <use xlink:href="#m7458e1ae79" x="124.118005" y="248.511322" style="fill: #404040; fill-opacity: 0.4"/>
     <use xlink:href="#m7458e1ae79" x="149.482397" y="353.774569" style="fill: #404040; fill-opacity: 0.4"/>
     <use xlink:href="#m7458e1ae79" x="135.908209" y="315.556675" style="fill: #404040; fill-opacity: 0.4"/>
     <use xlink:href="#m7458e1ae79" x="127.403379" y="340.955224" style="fill: #404040; fill-opacity: 0.4"/>
     <use xlink:href="#m7458e1ae79" x="129.284297" y="279.511567" style="fill: #404040; fill-opacity: 0.4"/>
     <use xlink:href="#m7458e1ae79" x="127.407344" y="301.771799" style="fill: #404040; fill-opacity: 0.4"/>
     <use xlink:href="#m7458e1ae79" x="132.121166" y="357.673604" style="fill: #404040; fill-opacity: 0.4"/>
     <use xlink:href="#m7458e1ae79" x="141.198248" y="341.33258" style="fill: #404040; fill-opacity: 0.4"/>
     <use xlink:href="#m7458e1ae79" x="147.277889" y="377.94981" style="fill: #404040; fill-opacity: 0.4"/>
     <use xlink:href="#m7458e1ae79" x="146.126652" y="326.700496" style="fill: #404040; fill-opacity: 0.4"/>
     <use xlink:href="#m7458e1ae79" x="122.474761" y="352.034233" style="fill: #404040; fill-opacity: 0.4"/>
     <use xlink:href="#m7458e1ae79" x="140.751079" y="337.562788" style="fill: #404040; fill-opacity: 0.4"/>
     <use xlink:href="#m7458e1ae79" x="142.935034" y="315.97673" style="fill: #404040; fill-opacity: 0.4"/>
     <use xlink:href="#m7458e1ae79" x="128.763286" y="338.948265" style="fill: #404040; fill-opacity: 0.4"/>
     <use xlink:href="#m7458e1ae79" x="138.155583" y="290.802323" style="fill: #404040; fill-opacity: 0.4"/>
     <use xlink:href="#m7458e1ae79" x="143.93592" y="357.64532" style="fill: #404040; fill-opacity: 0.4"/>
     <use xlink:href="#m7458e1ae79" x="132.223631" y="341.426551" style="fill: #404040; fill-opacity: 0.4"/>
     <use xlink:href="#m7458e1ae79" x="139.052059" y="369.111567" style="fill: #404040; fill-opacity: 0.4"/>
     <use xlink:href="#m7458e1ae79" x="136.548014" y="228.096317" style="fill: #404040; fill-opacity: 0.4"/>
     <use xlink:href="#m7458e1ae79" x="125.047025" y="193.26185" style="fill: #404040; fill-opacity: 0.4"/>
     <use xlink:href="#m7458e1ae79" x="139.262602" y="374.643373" style="fill: #404040; fill-opacity: 0.4"/>
     <use xlink:href="#m7458e1ae79" x="132.504111" y="319.113791" style="fill: #404040; fill-opacity: 0.4"/>
     <use xlink:href="#m7458e1ae79" x="134.540195" y="378.618141" style="fill: #404040; fill-opacity: 0.4"/>
     <use xlink:href="#m7458e1ae79" x="135.612169" y="324.565768" style="fill: #404040; fill-opacity: 0.4"/>
     <use xlink:href="#m7458e1ae79" x="115.73746" y="312.399138" style="fill: #404040; fill-opacity: 0.4"/>
     <use xlink:href="#m7458e1ae79" x="133.328706" y="293.884564" style="fill: #404040; fill-opacity: 0.4"/>
     <use xlink:href="#m7458e1ae79" x="144.410961" y="395.645297" style="fill: #404040; fill-opacity: 0.4"/>
     <use xlink:href="#m7458e1ae79" x="135.643228" y="261.409239" style="fill: #404040; fill-opacity: 0.4"/>
     <use xlink:href="#m7458e1ae79" x="143.612754" y="370.143058" style="fill: #404040; fill-opacity: 0.4"/>
     <use xlink:href="#m7458e1ae79" x="127.688938" y="292.277893" style="fill: #404040; fill-opacity: 0.4"/>
     <use xlink:href="#m7458e1ae79" x="135.319285" y="264.574585" style="fill: #404040; fill-opacity: 0.4"/>
     <use xlink:href="#m7458e1ae79" x="149.008854" y="321.571983" style="fill: #404040; fill-opacity: 0.4"/>
     <use xlink:href="#m7458e1ae79" x="135.923892" y="383.645586" style="fill: #404040; fill-opacity: 0.4"/>
     <use xlink:href="#m7458e1ae79" x="137.355676" y="376.027211" style="fill: #404040; fill-opacity: 0.4"/>
     <use xlink:href="#m7458e1ae79" x="122.563027" y="336.799013" style="fill: #404040; fill-opacity: 0.4"/>
     <use xlink:href="#m7458e1ae79" x="121.246081" y="325.62718" style="fill: #404040; fill-opacity: 0.4"/>
     <use xlink:href="#m7458e1ae79" x="134.018144" y="374.338638" style="fill: #404040; fill-opacity: 0.4"/>
     <use xlink:href="#m7458e1ae79" x="133.391326" y="279.667511" style="fill: #404040; fill-opacity: 0.4"/>
     <use xlink:href="#m7458e1ae79" x="126.065645" y="392.11914" style="fill: #404040; fill-opacity: 0.4"/>
     <use xlink:href="#m7458e1ae79" x="152.975954" y="324.649855" style="fill: #404040; fill-opacity: 0.4"/>
     <use xlink:href="#m7458e1ae79" x="128.405734" y="297.917265" style="fill: #404040; fill-opacity: 0.4"/>
     <use xlink:href="#m7458e1ae79" x="148.725485" y="276.214849" style="fill: #404040; fill-opacity: 0.4"/>
     <use xlink:href="#m7458e1ae79" x="117.697693" y="381.069071" style="fill: #404040; fill-opacity: 0.4"/>
     <use xlink:href="#m7458e1ae79" x="132.412342" y="391.617619" style="fill: #404040; fill-opacity: 0.4"/>
     <use xlink:href="#m7458e1ae79" x="123.792456" y="399.242818" style="fill: #404040; fill-opacity: 0.4"/>
     <use xlink:href="#m7458e1ae79" x="136.544033" y="313.772711" style="fill: #404040; fill-opacity: 0.4"/>
     <use xlink:href="#m7458e1ae79" x="119.910206" y="361.825065" style="fill: #404040; fill-opacity: 0.4"/>
     <use xlink:href="#m7458e1ae79" x="124.554862" y="249.65502" style="fill: #404040; fill-opacity: 0.4"/>
     <use xlink:href="#m7458e1ae79" x="134.544335" y="272.135081" style="fill: #404040; fill-opacity: 0.4"/>
     <use xlink:href="#m7458e1ae79" x="145.837782" y="385.164401" style="fill: #404040; fill-opacity: 0.4"/>
     <use xlink:href="#m7458e1ae79" x="130.170112" y="355.783985" style="fill: #404040; fill-opacity: 0.4"/>
     <use xlink:href="#m7458e1ae79" x="118.728632" y="247.63998" style="fill: #404040; fill-opacity: 0.4"/>
     <use xlink:href="#m7458e1ae79" x="150.900353" y="386.101157" style="fill: #404040; fill-opacity: 0.4"/>
     <use xlink:href="#m7458e1ae79" x="128.032067" y="347.390805" style="fill: #404040; fill-opacity: 0.4"/>
     <use xlink:href="#m7458e1ae79" x="127.498744" y="407.408143" style="fill: #404040; fill-opacity: 0.4"/>
     <use xlink:href="#m7458e1ae79" x="145.183592" y="360.122295" style="fill: #404040; fill-opacity: 0.4"/>
     <use xlink:href="#m7458e1ae79" x="143.790136" y="355.964173" style="fill: #404040; fill-opacity: 0.4"/>
     <use xlink:href="#m7458e1ae79" x="148.950669" y="279.383689" style="fill: #404040; fill-opacity: 0.4"/>
     <use xlink:href="#m7458e1ae79" x="147.131102" y="282.112162" style="fill: #404040; fill-opacity: 0.4"/>
     <use xlink:href="#m7458e1ae79" x="141.847588" y="281.11305" style="fill: #404040; fill-opacity: 0.4"/>
     <use xlink:href="#m7458e1ae79" x="140.288128" y="294.926483" style="fill: #404040; fill-opacity: 0.4"/>
     <use xlink:href="#m7458e1ae79" x="144.540756" y="339.972712" style="fill: #404040; fill-opacity: 0.4"/>
     <use xlink:href="#m7458e1ae79" x="117.509732" y="353.382853" style="fill: #404040; fill-opacity: 0.4"/>
     <use xlink:href="#m7458e1ae79" x="151.617052" y="378.11995" style="fill: #404040; fill-opacity: 0.4"/>
     <use xlink:href="#m7458e1ae79" x="123.850374" y="315.048055" style="fill: #404040; fill-opacity: 0.4"/>
     <use xlink:href="#m7458e1ae79" x="140.658721" y="293.490882" style="fill: #404040; fill-opacity: 0.4"/>
     <use xlink:href="#m7458e1ae79" x="138.244304" y="396.671545" style="fill: #404040; fill-opacity: 0.4"/>
     <use xlink:href="#m7458e1ae79" x="130.531358" y="291.916863" style="fill: #404040; fill-opacity: 0.4"/>
     <use xlink:href="#m7458e1ae79" x="135.259462" y="276.210481" style="fill: #404040; fill-opacity: 0.4"/>
     <use xlink:href="#m7458e1ae79" x="125.662109" y="375.096353" style="fill: #404040; fill-opacity: 0.4"/>
     <use xlink:href="#m7458e1ae79" x="115.746606" y="316.126941" style="fill: #404040; fill-opacity: 0.4"/>
     <use xlink:href="#m7458e1ae79" x="141.590878" y="345.082169" style="fill: #404040; fill-opacity: 0.4"/>
     <use xlink:href="#m7458e1ae79" x="132.446836" y="375.301985" style="fill: #404040; fill-opacity: 0.4"/>
     <use xlink:href="#m7458e1ae79" x="137.068142" y="321.754245" style="fill: #404040; fill-opacity: 0.4"/>
     <use xlink:href="#m7458e1ae79" x="137.340909" y="359.337388" style="fill: #404040; fill-opacity: 0.4"/>
     <use xlink:href="#m7458e1ae79" x="134.747212" y="264.372447" style="fill: #404040; fill-opacity: 0.4"/>
     <use xlink:href="#m7458e1ae79" x="117.744287" y="273.153412" style="fill: #404040; fill-opacity: 0.4"/>
     <use xlink:href="#m7458e1ae79" x="132.918737" y="383.980133" style="fill: #404040; fill-opacity: 0.4"/>
     <use xlink:href="#m7458e1ae79" x="117.638992" y="372.128395" style="fill: #404040; fill-opacity: 0.4"/>
     <use xlink:href="#m7458e1ae79" x="118.221027" y="308.60341" style="fill: #404040; fill-opacity: 0.4"/>
     <use xlink:href="#m7458e1ae79" x="141.24862" y="293.74784" style="fill: #404040; fill-opacity: 0.4"/>
     <use xlink:href="#m7458e1ae79" x="122.659323" y="388.723155" style="fill: #404040; fill-opacity: 0.4"/>
     <use xlink:href="#m7458e1ae79" x="135.692255" y="303.083781" style="fill: #404040; fill-opacity: 0.4"/>
     <use xlink:href="#m7458e1ae79" x="126.771947" y="297.698037" style="fill: #404040; fill-opacity: 0.4"/>
     <use xlink:href="#m7458e1ae79" x="146.471688" y="281.49401" style="fill: #404040; fill-opacity: 0.4"/>
     <use xlink:href="#m7458e1ae79" x="118.686834" y="275.741612" style="fill: #404040; fill-opacity: 0.4"/>
     <use xlink:href="#m7458e1ae79" x="135.122846" y="265.700373" style="fill: #404040; fill-opacity: 0.4"/>
     <use xlink:href="#m7458e1ae79" x="149.138487" y="300.576393" style="fill: #404040; fill-opacity: 0.4"/>
     <use xlink:href="#m7458e1ae79" x="119.532736" y="281.8777" style="fill: #404040; fill-opacity: 0.4"/>
     <use xlink:href="#m7458e1ae79" x="118.516774" y="319.491365" style="fill: #404040; fill-opacity: 0.4"/>
     <use xlink:href="#m7458e1ae79" x="128.491997" y="346.759713" style="fill: #404040; fill-opacity: 0.4"/>
     <use xlink:href="#m7458e1ae79" x="120.984134" y="315.457354" style="fill: #404040; fill-opacity: 0.4"/>
     <use xlink:href="#m7458e1ae79" x="115.863689" y="351.375348" style="fill: #404040; fill-opacity: 0.4"/>
     <use xlink:href="#m7458e1ae79" x="132.611176" y="357.660827" style="fill: #404040; fill-opacity: 0.4"/>
     <use xlink:href="#m7458e1ae79" x="142.350235" y="343.224711" style="fill: #404040; fill-opacity: 0.4"/>
     <use xlink:href="#m7458e1ae79" x="119.626976" y="320.642708" style="fill: #404040; fill-opacity: 0.4"/>
     <use xlink:href="#m7458e1ae79" x="116.339308" y="408.655531" style="fill: #404040; fill-opacity: 0.4"/>
     <use xlink:href="#m7458e1ae79" x="152.917586" y="323.332413" style="fill: #404040; fill-opacity: 0.4"/>
     <use xlink:href="#m7458e1ae79" x="121.522704" y="315.821769" style="fill: #404040; fill-opacity: 0.4"/>
     <use xlink:href="#m7458e1ae79" x="142.466221" y="303.101909" style="fill: #404040; fill-opacity: 0.4"/>
     <use xlink:href="#m7458e1ae79" x="145.870333" y="327.992112" style="fill: #404040; fill-opacity: 0.4"/>
     <use xlink:href="#m7458e1ae79" x="145.4064" y="357.17181" style="fill: #404040; fill-opacity: 0.4"/>
     <use xlink:href="#m7458e1ae79" x="147.788248" y="355.702682" style="fill: #404040; fill-opacity: 0.4"/>
     <use xlink:href="#m7458e1ae79" x="115.583674" y="288.499038" style="fill: #404040; fill-opacity: 0.4"/>
     <use xlink:href="#m7458e1ae79" x="125.848557" y="326.547446" style="fill: #404040; fill-opacity: 0.4"/>
     <use xlink:href="#m7458e1ae79" x="124.375327" y="313.403983" style="fill: #404040; fill-opacity: 0.4"/>
     <use xlink:href="#m7458e1ae79" x="124.802155" y="407.736357" style="fill: #404040; fill-opacity: 0.4"/>
     <use xlink:href="#m7458e1ae79" x="137.302652" y="289.930435" style="fill: #404040; fill-opacity: 0.4"/>
     <use xlink:href="#m7458e1ae79" x="148.160553" y="367.345786" style="fill: #404040; fill-opacity: 0.4"/>
     <use xlink:href="#m7458e1ae79" x="121.399567" y="345.508885" style="fill: #404040; fill-opacity: 0.4"/>
     <use xlink:href="#m7458e1ae79" x="141.25312" y="260.561868" style="fill: #404040; fill-opacity: 0.4"/>
     <use xlink:href="#m7458e1ae79" x="139.869608" y="330.668494" style="fill: #404040; fill-opacity: 0.4"/>
     <use xlink:href="#m7458e1ae79" x="130.194356" y="354.068766" style="fill: #404040; fill-opacity: 0.4"/>
     <use xlink:href="#m7458e1ae79" x="116.410403" y="356.210101" style="fill: #404040; fill-opacity: 0.4"/>
     <use xlink:href="#m7458e1ae79" x="133.191751" y="262.125238" style="fill: #404040; fill-opacity: 0.4"/>
     <use xlink:href="#m7458e1ae79" x="138.576581" y="332.414127" style="fill: #404040; fill-opacity: 0.4"/>
     <use xlink:href="#m7458e1ae79" x="144.172842" y="367.495287" style="fill: #404040; fill-opacity: 0.4"/>
     <use xlink:href="#m7458e1ae79" x="117.473306" y="370.360429" style="fill: #404040; fill-opacity: 0.4"/>
     <use xlink:href="#m7458e1ae79" x="132.698845" y="379.046714" style="fill: #404040; fill-opacity: 0.4"/>
     <use xlink:href="#m7458e1ae79" x="141.389556" y="303.028688" style="fill: #404040; fill-opacity: 0.4"/>
     <use xlink:href="#m7458e1ae79" x="146.816948" y="228.252698" style="fill: #404040; fill-opacity: 0.4"/>
     <use xlink:href="#m7458e1ae79" x="145.604396" y="399.206945" style="fill: #404040; fill-opacity: 0.4"/>
     <use xlink:href="#m7458e1ae79" x="151.970748" y="223.203085" style="fill: #404040; fill-opacity: 0.4"/>
     <use xlink:href="#m7458e1ae79" x="121.331116" y="335.326773" style="fill: #404040; fill-opacity: 0.4"/>
    </g>
   </g>
   <g id="PathCollection_2">
    <g clip-path="url(#p4393c489fb)">
     <use xlink:href="#m7458e1ae79" x="321.51505" y="156.79079" style="fill: #404040; fill-opacity: 0.4"/>
     <use xlink:href="#m7458e1ae79" x="324.574738" y="306.915547" style="fill: #404040; fill-opacity: 0.4"/>
     <use xlink:href="#m7458e1ae79" x="311.014485" y="206.610399" style="fill: #404040; fill-opacity: 0.4"/>
     <use xlink:href="#m7458e1ae79" x="309.950237" y="187.356511" style="fill: #404040; fill-opacity: 0.4"/>
     <use xlink:href="#m7458e1ae79" x="333.072261" y="275.01977" style="fill: #404040; fill-opacity: 0.4"/>
     <use xlink:href="#m7458e1ae79" x="321.244127" y="382.295327" style="fill: #404040; fill-opacity: 0.4"/>
     <use xlink:href="#m7458e1ae79" x="308.034383" y="381.118322" style="fill: #404040; fill-opacity: 0.4"/>
     <use xlink:href="#m7458e1ae79" x="335.909138" y="370.369821" style="fill: #404040; fill-opacity: 0.4"/>
     <use xlink:href="#m7458e1ae79" x="307.397223" y="365.358375" style="fill: #404040; fill-opacity: 0.4"/>
     <use xlink:href="#m7458e1ae79" x="337.445922" y="334.064534" style="fill: #404040; fill-opacity: 0.4"/>
     <use xlink:href="#m7458e1ae79" x="314.175079" y="402.162235" style="fill: #404040; fill-opacity: 0.4"/>
     <use xlink:href="#m7458e1ae79" x="311.857925" y="249.742111" style="fill: #404040; fill-opacity: 0.4"/>
     <use xlink:href="#m7458e1ae79" x="338.863999" y="391.016885" style="fill: #404040; fill-opacity: 0.4"/>
     <use xlink:href="#m7458e1ae79" x="342.265954" y="409.097208" style="fill: #404040; fill-opacity: 0.4"/>
     <use xlink:href="#m7458e1ae79" x="335.035125" y="231.187513" style="fill: #404040; fill-opacity: 0.4"/>
     <use xlink:href="#m7458e1ae79" x="306.349787" y="409.854814" style="fill: #404040; fill-opacity: 0.4"/>
     <use xlink:href="#m7458e1ae79" x="320.606709" y="357.384649" style="fill: #404040; fill-opacity: 0.4"/>
     <use xlink:href="#m7458e1ae79" x="335.65087" y="360.276273" style="fill: #404040; fill-opacity: 0.4"/>
     <use xlink:href="#m7458e1ae79" x="323.024188" y="335.674152" style="fill: #404040; fill-opacity: 0.4"/>
     <use xlink:href="#m7458e1ae79" x="314.447856" y="117.710017" style="fill: #404040; fill-opacity: 0.4"/>
     <use xlink:href="#m7458e1ae79" x="306.911976" y="282.074541" style="fill: #404040; fill-opacity: 0.4"/>
     <use xlink:href="#m7458e1ae79" x="310.223175" y="262.389677" style="fill: #404040; fill-opacity: 0.4"/>
     <use xlink:href="#m7458e1ae79" x="322.930847" y="152.160959" style="fill: #404040; fill-opacity: 0.4"/>
     <use xlink:href="#m7458e1ae79" x="324.260694" y="228.781138" style="fill: #404040; fill-opacity: 0.4"/>
     <use xlink:href="#m7458e1ae79" x="322.807531" y="318.047355" style="fill: #404040; fill-opacity: 0.4"/>
     <use xlink:href="#m7458e1ae79" x="332.350861" y="157.545884" style="fill: #404040; fill-opacity: 0.4"/>
     <use xlink:href="#m7458e1ae79" x="321.649723" y="270.572802" style="fill: #404040; fill-opacity: 0.4"/>
     <use xlink:href="#m7458e1ae79" x="319.029194" y="440.979716" style="fill: #404040; fill-opacity: 0.4"/>
     <use xlink:href="#m7458e1ae79" x="315.780675" y="283.642771" style="fill: #404040; fill-opacity: 0.4"/>
     <use xlink:href="#m7458e1ae79" x="304.944337" y="332.788862" style="fill: #404040; fill-opacity: 0.4"/>
     <use xlink:href="#m7458e1ae79" x="321.444881" y="110.068437" style="fill: #404040; fill-opacity: 0.4"/>
     <use xlink:href="#m7458e1ae79" x="319.941499" y="302.629491" style="fill: #404040; fill-opacity: 0.4"/>
     <use xlink:href="#m7458e1ae79" x="336.427136" y="174.660458" style="fill: #404040; fill-opacity: 0.4"/>
     <use xlink:href="#m7458e1ae79" x="318.948241" y="212.084163" style="fill: #404040; fill-opacity: 0.4"/>
     <use xlink:href="#m7458e1ae79" x="308.223043" y="269.047052" style="fill: #404040; fill-opacity: 0.4"/>
     <use xlink:href="#m7458e1ae79" x="306.075941" y="148.993321" style="fill: #404040; fill-opacity: 0.4"/>
     <use xlink:href="#m7458e1ae79" x="314.941297" y="433.175585" style="fill: #404040; fill-opacity: 0.4"/>
     <use xlink:href="#m7458e1ae79" x="328.646419" y="189.956286" style="fill: #404040; fill-opacity: 0.4"/>
     <use xlink:href="#m7458e1ae79" x="312.07567" y="191.07383" style="fill: #404040; fill-opacity: 0.4"/>
     <use xlink:href="#m7458e1ae79" x="331.302752" y="260.324785" style="fill: #404040; fill-opacity: 0.4"/>
     <use xlink:href="#m7458e1ae79" x="324.404006" y="145.393669" style="fill: #404040; fill-opacity: 0.4"/>
     <use xlink:href="#m7458e1ae79" x="324.691662" y="399.312327" style="fill: #404040; fill-opacity: 0.4"/>
     <use xlink:href="#m7458e1ae79" x="309.748681" y="239.72446" style="fill: #404040; fill-opacity: 0.4"/>
     <use xlink:href="#m7458e1ae79" x="341.985153" y="275.159279" style="fill: #404040; fill-opacity: 0.4"/>
     <use xlink:href="#m7458e1ae79" x="322.728748" y="231.124065" style="fill: #404040; fill-opacity: 0.4"/>
     <use xlink:href="#m7458e1ae79" x="340.875776" y="285.587156" style="fill: #404040; fill-opacity: 0.4"/>
     <use xlink:href="#m7458e1ae79" x="320.109253" y="142.459128" style="fill: #404040; fill-opacity: 0.4"/>
     <use xlink:href="#m7458e1ae79" x="333.61266" y="342.912987" style="fill: #404040; fill-opacity: 0.4"/>
     <use xlink:href="#m7458e1ae79" x="312.435717" y="259.961134" style="fill: #404040; fill-opacity: 0.4"/>
     <use xlink:href="#m7458e1ae79" x="310.614415" y="168.226187" style="fill: #404040; fill-opacity: 0.4"/>
     <use xlink:href="#m7458e1ae79" x="309.708726" y="270.878301" style="fill: #404040; fill-opacity: 0.4"/>
     <use xlink:href="#m7458e1ae79" x="329.886461" y="187.513984" style="fill: #404040; fill-opacity: 0.4"/>
     <use xlink:href="#m7458e1ae79" x="315.092678" y="138.297128" style="fill: #404040; fill-opacity: 0.4"/>
     <use xlink:href="#m7458e1ae79" x="323.853907" y="272.507632" style="fill: #404040; fill-opacity: 0.4"/>
     <use xlink:href="#m7458e1ae79" x="324.142986" y="281.567778" style="fill: #404040; fill-opacity: 0.4"/>
     <use xlink:href="#m7458e1ae79" x="327.884849" y="364.115792" style="fill: #404040; fill-opacity: 0.4"/>
     <use xlink:href="#m7458e1ae79" x="311.794575" y="278.684999" style="fill: #404040; fill-opacity: 0.4"/>
     <use xlink:href="#m7458e1ae79" x="315.033087" y="290.088945" style="fill: #404040; fill-opacity: 0.4"/>
     <use xlink:href="#m7458e1ae79" x="310.82996" y="220.268817" style="fill: #404040; fill-opacity: 0.4"/>
     <use xlink:href="#m7458e1ae79" x="335.194246" y="226.932307" style="fill: #404040; fill-opacity: 0.4"/>
     <use xlink:href="#m7458e1ae79" x="333.511501" y="431.66081" style="fill: #404040; fill-opacity: 0.4"/>
     <use xlink:href="#m7458e1ae79" x="315.955049" y="264.106753" style="fill: #404040; fill-opacity: 0.4"/>
     <use xlink:href="#m7458e1ae79" x="326.428614" y="173.78988" style="fill: #404040; fill-opacity: 0.4"/>
     <use xlink:href="#m7458e1ae79" x="313.800854" y="353.355333" style="fill: #404040; fill-opacity: 0.4"/>
     <use xlink:href="#m7458e1ae79" x="337.987867" y="373.479199" style="fill: #404040; fill-opacity: 0.4"/>
     <use xlink:href="#m7458e1ae79" x="307.628823" y="216.224758" style="fill: #404040; fill-opacity: 0.4"/>
     <use xlink:href="#m7458e1ae79" x="312.10178" y="189.533993" style="fill: #404040; fill-opacity: 0.4"/>
     <use xlink:href="#m7458e1ae79" x="328.341712" y="281.834291" style="fill: #404040; fill-opacity: 0.4"/>
     <use xlink:href="#m7458e1ae79" x="325.429249" y="213.983009" style="fill: #404040; fill-opacity: 0.4"/>
     <use xlink:href="#m7458e1ae79" x="323.161898" y="219.167544" style="fill: #404040; fill-opacity: 0.4"/>
     <use xlink:href="#m7458e1ae79" x="327.789267" y="241.577168" style="fill: #404040; fill-opacity: 0.4"/>
     <use xlink:href="#m7458e1ae79" x="341.274101" y="237.230777" style="fill: #404040; fill-opacity: 0.4"/>
     <use xlink:href="#m7458e1ae79" x="325.190616" y="349.907039" style="fill: #404040; fill-opacity: 0.4"/>
     <use xlink:href="#m7458e1ae79" x="339.255694" y="325.66289" style="fill: #404040; fill-opacity: 0.4"/>
     <use xlink:href="#m7458e1ae79" x="314.84409" y="320.581444" style="fill: #404040; fill-opacity: 0.4"/>
     <use xlink:href="#m7458e1ae79" x="308.032932" y="330.88794" style="fill: #404040; fill-opacity: 0.4"/>
     <use xlink:href="#m7458e1ae79" x="325.42816" y="77.53447" style="fill: #404040; fill-opacity: 0.4"/>
     <use xlink:href="#m7458e1ae79" x="308.377791" y="68.630268" style="fill: #404040; fill-opacity: 0.4"/>
     <use xlink:href="#m7458e1ae79" x="304.952587" y="53.049034" style="fill: #404040; fill-opacity: 0.4"/>
     <use xlink:href="#m7458e1ae79" x="333.009856" y="349.81842" style="fill: #404040; fill-opacity: 0.4"/>
     <use xlink:href="#m7458e1ae79" x="305.696924" y="292.804696" style="fill: #404040; fill-opacity: 0.4"/>
     <use xlink:href="#m7458e1ae79" x="325.968278" y="287.022976" style="fill: #404040; fill-opacity: 0.4"/>
     <use xlink:href="#m7458e1ae79" x="314.1295" y="170.785393" style="fill: #404040; fill-opacity: 0.4"/>
     <use xlink:href="#m7458e1ae79" x="316.14625" y="264.579608" style="fill: #404040; fill-opacity: 0.4"/>
     <use xlink:href="#m7458e1ae79" x="311.834947" y="167.175531" style="fill: #404040; fill-opacity: 0.4"/>
     <use xlink:href="#m7458e1ae79" x="341.267271" y="274.319552" style="fill: #404040; fill-opacity: 0.4"/>
     <use xlink:href="#m7458e1ae79" x="304.836066" y="228.949149" style="fill: #404040; fill-opacity: 0.4"/>
     <use xlink:href="#m7458e1ae79" x="323.593096" y="432.582605" style="fill: #404040; fill-opacity: 0.4"/>
     <use xlink:href="#m7458e1ae79" x="329.330398" y="300.151369" style="fill: #404040; fill-opacity: 0.4"/>
     <use xlink:href="#m7458e1ae79" x="319.231709" y="285.945128" style="fill: #404040; fill-opacity: 0.4"/>
     <use xlink:href="#m7458e1ae79" x="324.086384" y="176.168189" style="fill: #404040; fill-opacity: 0.4"/>
     <use xlink:href="#m7458e1ae79" x="337.334226" y="395.350008" style="fill: #404040; fill-opacity: 0.4"/>
     <use xlink:href="#m7458e1ae79" x="328.46919" y="167.552014" style="fill: #404040; fill-opacity: 0.4"/>
     <use xlink:href="#m7458e1ae79" x="331.721455" y="162.480396" style="fill: #404040; fill-opacity: 0.4"/>
     <use xlink:href="#m7458e1ae79" x="305.955582" y="278.737199" style="fill: #404040; fill-opacity: 0.4"/>
     <use xlink:href="#m7458e1ae79" x="339.415196" y="298.338739" style="fill: #404040; fill-opacity: 0.4"/>
     <use xlink:href="#m7458e1ae79" x="324.331872" y="395.450585" style="fill: #404040; fill-opacity: 0.4"/>
     <use xlink:href="#m7458e1ae79" x="327.879502" y="234.217117" style="fill: #404040; fill-opacity: 0.4"/>
     <use xlink:href="#m7458e1ae79" x="315.148199" y="259.602561" style="fill: #404040; fill-opacity: 0.4"/>
     <use xlink:href="#m7458e1ae79" x="314.81868" y="182.603661" style="fill: #404040; fill-opacity: 0.4"/>
     <use xlink:href="#m7458e1ae79" x="312.666811" y="161.257961" style="fill: #404040; fill-opacity: 0.4"/>
     <use xlink:href="#m7458e1ae79" x="338.01191" y="236.426978" style="fill: #404040; fill-opacity: 0.4"/>
     <use xlink:href="#m7458e1ae79" x="337.541806" y="134.203218" style="fill: #404040; fill-opacity: 0.4"/>
     <use xlink:href="#m7458e1ae79" x="326.12811" y="263.149248" style="fill: #404040; fill-opacity: 0.4"/>
     <use xlink:href="#m7458e1ae79" x="337.338933" y="380.517097" style="fill: #404040; fill-opacity: 0.4"/>
     <use xlink:href="#m7458e1ae79" x="323.644138" y="283.360587" style="fill: #404040; fill-opacity: 0.4"/>
    </g>
   </g>
   <g id="text_11">
    <!-- Liver -->
    <g style="fill: #262626" transform="translate(211.485 18.6525) scale(0.16 -0.16)">
     <defs>
      <path id="ArialMT-4c" d="M 469 0 
L 469 4581 
L 1075 4581 
L 1075 541 
L 3331 541 
L 3331 0 
L 469 0 
z
" transform="scale(0.015625)"/>
      <path id="ArialMT-76" d="M 1344 0 
L 81 3319 
L 675 3319 
L 1388 1331 
Q 1503 1009 1600 663 
Q 1675 925 1809 1294 
L 2547 3319 
L 3125 3319 
L 1869 0 
L 1344 0 
z
" transform="scale(0.015625)"/>
      <path id="ArialMT-65" d="M 2694 1069 
L 3275 997 
Q 3138 488 2766 206 
Q 2394 -75 1816 -75 
Q 1088 -75 661 373 
Q 234 822 234 1631 
Q 234 2469 665 2931 
Q 1097 3394 1784 3394 
Q 2450 3394 2872 2941 
Q 3294 2488 3294 1666 
Q 3294 1616 3291 1516 
L 816 1516 
Q 847 969 1125 678 
Q 1403 388 1819 388 
Q 2128 388 2347 550 
Q 2566 713 2694 1069 
z
M 847 1978 
L 2700 1978 
Q 2663 2397 2488 2606 
Q 2219 2931 1791 2931 
Q 1403 2931 1139 2672 
Q 875 2413 847 1978 
z
" transform="scale(0.015625)"/>
     </defs>
     <use xlink:href="#ArialMT-4c"/>
     <use xlink:href="#ArialMT-69" transform="translate(55.615234 0)"/>
     <use xlink:href="#ArialMT-76" transform="translate(77.832031 0)"/>
     <use xlink:href="#ArialMT-65" transform="translate(127.832031 0)"/>
     <use xlink:href="#ArialMT-72" transform="translate(183.447266 0)"/>
    </g>
   </g>
  </g>
 </g>
 <defs>
  <clipPath id="p4393c489fb">
   <rect x="39.70375" y="33.6525" width="378.24" height="426.72375"/>
  </clipPath>
 </defs>
</svg>
